# xmcd
#
# Track frame offsets:
#	150
#	13691
#	28027
#	42505
#	52058
#	66238
#	75202
#	89902
#	100623
#	107773
#	121466
#
# Disc length: 1807 seconds
# Revision: 0
# Processed by: cddbd v1.5.2PL0 Copyright (c) Steve Scherf et al.
# Submitted via: dBpowerAMP V12.0
#
DISCID=8f070d0b
DTITLE=The Bucking Mules - The Bucking Mules
DYEAR=2014
DGENRE=Country: Folk
TTITLE0=Blackeyed Suzianna
TTITLE1=Paddy Won't You Drink Some Cider
TTITLE2=Cackling Hen
TTITLE3=Tom Douglas' Tune
TTITLE4=Sally Johnson
TTITLE5=Rebel Raid
TTITLE6=Little Gal'll Fool Me
TTITLE7=Red Steer
TTITLE8=Shortening Bread
TTITLE9=Rock the Cradle Lucy
TTITLE10=Tennessee Girls
EXTD=
EXTT0=
EXTT1=
EXTT2=
EXTT3=
EXTT4=
EXTT5=
EXTT6=
EXTT7=
EXTT8=
EXTT9=
EXTT10=
PLAYORDER=
